<svg width="85" height="14" viewBox="0 0 85 14" fill="none" xmlns="http://www.w3.org/2000/svg">
<path d="M3.08 8.72V14H0.44V-9.53674e-07H5.92C6.64 -9.53674e-07 7.26667 0.119999 7.8 0.359999C8.33333 0.586666 8.77333 0.893333 9.12 1.28C9.48 1.65333 9.74667 2.08667 9.92 2.58C10.1067 3.06 10.2 3.55333 10.2 4.06V4.54C10.2 5.06 10.1067 5.57333 9.92 6.08C9.74667 6.57333 9.48 7.02 9.12 7.42C8.77333 7.80667 8.33333 8.12 7.8 8.36C7.26667 8.6 6.64 8.72 5.92 8.72H3.08ZM3.08 6.2H5.66C6.24667 6.2 6.70667 6.04 7.04 5.72C7.38667 5.4 7.56 4.98667 7.56 4.48V4.24C7.56 3.73333 7.38667 3.32 7.04 3C6.70667 2.68 6.24667 2.52 5.66 2.52H3.08V6.2ZM12.4661 -9.53674e-07H15.1061V5.72H19.6261V-9.53674e-07H22.2661V14H19.6261V8.24H15.1061V14H12.4661V-9.53674e-07ZM31.9922 11H27.2322L26.5522 14H23.7922L27.1322 -9.53674e-07H32.0922L35.4322 14H32.6722L31.9922 11ZM27.7922 8.48H31.4122L29.7922 1.32H29.4322L27.7922 8.48ZM37.3783 -9.53674e-07H40.0183V11.48H46.3783V14H37.3783V-9.53674e-07ZM56.4844 11H51.7244L51.0444 14H48.2844L51.6244 -9.53674e-07H56.5844L59.9244 14H57.1644L56.4844 11ZM52.2844 8.48H55.9044L54.2844 1.32H53.9244L52.2844 8.48ZM68.2505 12.68H68.6105V-9.53674e-07H71.2505V14H66.0905L64.4505 1.32H64.0905V14H61.4505V-9.53674e-07H66.6105L68.2505 12.68ZM75.9966 -9.53674e-07L78.3566 5.72H78.8366L81.1966 -9.53674e-07H84.0566L81.1766 6.8V7.16L84.0566 14H81.1966L78.8366 8.24H78.3566L75.9966 14H73.1366L76.0166 7.16V6.8L73.1366 -9.53674e-07H75.9966Z" fill="#2B3E61"/>
</svg>
