<?xml version="1.0" standalone="no"?>
<!DOCTYPE svg PUBLIC "-//W3C//DTD SVG 20010904//EN"
 "http://www.w3.org/TR/2001/REC-SVG-20010904/DTD/svg10.dtd">
<svg version="1.0" xmlns="http://www.w3.org/2000/svg"
 width="1024.000000pt" height="1024.000000pt" viewBox="0 0 1024.000000 1024.000000"
 preserveAspectRatio="xMidYMid meet">

<g transform="translate(0.000000,1024.000000) scale(0.100000,-0.100000)"
fill="#000000" stroke="none">
<path d="M0 5120 l0 -5120 5120 0 5120 0 0 5120 0 5120 -5120 0 -5120 0 0
-5120z m5183 4455 c131 -313 172 -406 246 -552 l71 -143 -43 0 c-41 0 -44 2
-75 53 -83 138 -197 421 -252 625 -6 23 -16 42 -22 42 -7 0 -9 -104 -6 -347 5
-335 6 -352 32 -453 37 -150 42 -140 -63 -140 l-89 0 -7 28 c-6 30 -38 64
-113 121 -35 28 -54 34 -107 39 -36 2 -65 7 -65 10 0 2 40 86 90 186 102 206
220 473 276 624 21 56 41 99 45 95 4 -5 41 -89 82 -188z m-1296 -7 c39 -68 83
-148 98 -178 36 -71 186 -339 259 -459 31 -52 55 -95 53 -97 -1 -2 -21 -6 -43
-9 -36 -6 -45 -3 -101 39 -127 93 -207 245 -262 500 -50 229 -54 134 -11 -238
17 -144 38 -280 46 -303 9 -24 33 -64 55 -90 42 -51 59 -95 59 -154 l0 -36
-96 -6 c-53 -4 -100 -5 -104 -2 -4 2 -10 28 -13 56 -12 100 -55 126 -194 116
-46 -3 -83 -5 -83 -3 0 1 21 70 46 152 92 304 204 743 204 804 0 17 3 30 8 30
4 0 39 -55 79 -122z m2563 -75 c39 -193 143 -602 179 -707 12 -33 21 -65 21
-73 0 -18 -45 -16 -65 3 -24 24 -71 122 -89 185 -16 55 -89 450 -102 547 -7
56 -18 73 -29 44 -8 -21 -43 -319 -54 -470 -11 -146 2 -324 27 -366 10 -18 22
-51 25 -74 l7 -42 -48 0 c-27 0 -77 3 -112 7 l-63 6 6 71 c3 40 1 79 -4 89
-16 28 -141 95 -190 102 -75 11 -76 14 -27 91 43 67 63 102 258 439 166 285
207 351 218 341 2 -3 21 -89 42 -193z m-3650 -183 c47 -63 119 -162 160 -220
95 -136 262 -358 295 -394 14 -16 25 -29 23 -30 -2 -2 -17 -8 -34 -15 -29 -11
-40 -8 -167 53 -110 53 -140 72 -152 97 -28 53 -83 206 -116 317 -31 107 -58
172 -59 141 -2 -74 118 -562 151 -615 12 -20 56 -64 99 -100 l78 -64 5 -57 c2
-32 2 -61 -2 -66 -12 -13 -191 -60 -199 -53 -4 4 -9 79 -12 166 -4 130 -8 162
-22 176 -15 15 -20 13 -70 -37 -29 -30 -73 -77 -98 -106 -25 -28 -55 -55 -67
-58 -21 -6 -23 -3 -23 32 0 21 5 67 10 103 13 81 56 522 72 734 12 148 13 157
28 135 8 -13 53 -76 100 -139z m4766 121 c-3 -22 -2 -72 4 -113 5 -40 14 -161
20 -268 10 -172 39 -475 57 -582 6 -43 -1 -47 -46 -23 -33 16 -66 80 -83 158
-8 36 -9 149 -4 375 4 191 3 321 -3 318 -21 -14 -53 -107 -106 -316 l-58 -225
-1 -160 c0 -88 1 -186 3 -218 2 -33 -1 -63 -7 -69 -14 -14 -192 40 -199 60 -3
7 0 39 7 70 11 49 20 63 71 111 64 58 95 102 109 152 l9 32 -50 -6 c-27 -3
-102 -22 -165 -42 -92 -29 -124 -35 -160 -29 -24 3 -44 8 -44 11 0 3 26 35 59
71 32 37 86 103 120 147 34 44 122 159 197 255 212 276 256 330 267 330 6 0 7
-16 3 -39z m1023 -382 c-7 -60 -12 -288 -13 -540 l-1 -436 -33 25 c-40 30 -56
68 -78 175 -11 56 -15 105 -11 157 7 85 60 420 82 513 8 33 13 63 11 65 -12
11 -99 -183 -195 -431 -21 -55 -47 -107 -57 -117 -23 -21 -283 -90 -341 -90
-83 0 -82 2 76 169 82 86 197 212 257 281 60 69 146 164 192 212 46 47 91 96
99 108 8 12 17 19 19 17 2 -2 -1 -51 -7 -108z m-6837 10 c40 -48 118 -140 172
-205 115 -137 207 -242 324 -368 45 -50 82 -94 82 -98 0 -14 -64 -37 -75 -28
-5 5 -63 26 -127 49 -65 22 -127 45 -138 51 -24 13 -64 91 -120 230 -42 104
-126 280 -135 280 -9 0 4 -47 55 -205 57 -173 90 -301 90 -342 0 -46 -131
-283 -172 -310 -59 -39 -60 -36 -52 92 3 62 7 301 8 530 0 228 4 414 8 412 4
-1 40 -41 80 -88z m3510 -605 c-3 -56 -6 -65 -20 -59 -32 12 -187 17 -247 7
-33 -5 -61 -9 -61 -8 -1 0 -4 29 -6 64 l-4 62 170 0 171 0 -3 -66z m3043 -105
c-9 -46 -18 -131 -21 -189 -8 -161 -10 -170 -42 -170 -15 1 -61 18 -102 38
-66 33 -75 40 -72 62 5 52 47 114 102 152 71 48 101 85 124 148 10 28 20 49
23 47 2 -3 -3 -42 -12 -88z m-4173 11 l3 -60 -95 0 c-52 0 -135 -5 -183 -11
-49 -6 -90 -9 -91 -7 -2 1 -6 29 -10 61 l-6 57 77 1 c43 1 116 4 163 8 154 14
138 20 142 -49z m2216 45 l93 0 -6 -40 c-13 -88 -16 -96 -33 -91 -29 9 -221
26 -289 26 -55 0 -64 2 -59 16 3 9 6 36 6 60 l0 44 98 -7 c53 -5 139 -8 190
-8z m-4257 -179 c49 -28 63 -52 73 -119 4 -32 2 -39 -17 -47 -12 -5 -55 -23
-96 -41 -67 -28 -76 -30 -86 -15 -7 8 -15 68 -19 133 -3 65 -9 142 -13 173
l-6 55 59 -56 c32 -30 80 -68 105 -83z m3127 5 c136 -42 304 -171 388 -298 44
-66 110 -225 123 -298 6 -30 11 -263 11 -527 l2 -472 -49 -49 c-59 -60 -212
-163 -328 -222 l-88 -44 7 91 c3 50 6 238 6 418 l0 326 80 33 c49 20 98 49
127 75 44 40 48 48 54 102 5 51 6 45 8 -43 l1 -102 -76 -50 c-42 -28 -81 -51
-87 -51 -9 0 -12 -85 -12 -329 l0 -329 25 15 c14 8 57 37 95 63 39 27 90 61
115 76 l45 27 -3 485 -3 485 -36 91 c-66 167 -181 310 -299 373 -53 28 -187
83 -203 83 -10 0 -5 -596 7 -740 6 -74 13 -195 16 -267 l5 -133 -70 0 -70 0 6
138 c3 75 8 156 10 178 l4 42 -45 7 c-56 8 -175 43 -281 83 -45 17 -84 28 -86
24 -4 -7 20 -186 27 -208 4 -12 150 -84 208 -103 l36 -12 7 -162 c13 -312 20
-679 13 -683 -4 -2 -9 0 -12 5 -4 5 -41 28 -84 52 -125 68 -241 149 -309 213
l-63 61 10 60 c6 34 10 245 10 489 l0 428 30 91 c75 224 210 388 395 482 94
47 231 58 333 26z m1849 8 c46 -17 283 -79 304 -79 23 0 21 -10 -12 -87 l-18
-42 -68 23 c-37 14 -112 35 -165 48 -107 26 -98 14 -83 111 7 42 4 41 42 26z
m-3871 -60 c6 -33 7 -62 3 -64 -3 -3 -60 -16 -126 -30 -67 -14 -141 -31 -167
-39 l-46 -14 -6 26 c-3 15 -10 42 -14 60 -6 23 -5 34 3 36 7 2 49 11 93 20 45
9 117 27 160 41 44 13 82 24 85 24 3 1 10 -26 15 -60z m915 -26 c0 -10 4 -38
8 -63 l7 -45 -133 0 -133 0 0 26 c0 15 -3 40 -6 57 l-6 31 73 4 c186 8 189 8
190 -10z m2171 9 c37 -5 70 -10 73 -13 6 -7 -5 -92 -14 -107 -4 -6 -35 -4 -86
5 -44 8 -104 12 -132 10 l-53 -4 0 59 0 58 73 -1 c39 0 102 -3 139 -7z m860
-212 c32 -6 60 -15 63 -20 3 -4 -6 -55 -19 -112 -69 -295 -206 -1036 -206
-1114 0 -17 -9 -24 -43 -32 -23 -6 -64 -25 -90 -43 -26 -17 -49 -30 -51 -28
-2 2 9 74 25 159 16 85 36 199 44 252 9 54 24 142 36 195 11 54 35 193 54 308
30 177 75 405 91 453 2 9 9 10 21 4 10 -6 44 -15 75 -22z m938 -35 c145 -60
200 -85 200 -92 0 -13 -44 -103 -50 -103 -4 0 -49 20 -101 44 -52 24 -124 54
-162 67 -37 13 -67 29 -67 35 0 6 7 32 16 58 19 54 6 55 164 -9z m-5775 3 c3
-24 8 -50 11 -59 3 -12 -11 -19 -67 -33 -40 -9 -115 -35 -167 -57 -52 -21 -98
-39 -102 -39 -5 0 -17 24 -28 53 -14 38 -17 54 -8 59 6 5 48 19 93 33 45 14
112 38 150 55 96 41 110 40 118 -12z m847 2 c37 -169 174 -867 197 -1010 22
-131 41 -273 37 -277 -2 -3 -21 4 -43 15 -21 11 -57 25 -80 31 -46 13 -47 15
-58 136 -3 39 -21 147 -40 240 -18 94 -41 213 -50 265 -9 52 -29 156 -45 230
-69 322 -79 373 -74 381 3 5 20 9 37 10 18 0 41 4 52 9 38 17 59 7 67 -30z
m931 -102 c4 -51 13 -325 22 -608 8 -283 24 -657 35 -830 11 -173 22 -353 24
-400 l5 -85 -83 -40 -83 -41 -6 181 c-4 99 -13 353 -22 565 -8 212 -19 531
-25 710 -5 179 -13 395 -16 480 l-7 155 75 3 75 3 6 -93z m2178 74 c3 -4 2
-74 -2 -157 -20 -386 -28 -747 -30 -1290 -1 -324 -4 -597 -6 -606 -3 -13 -19
-8 -88 28 l-86 44 6 87 c2 48 7 283 10 522 6 453 21 1083 31 1279 l6 113 77
-7 c42 -4 79 -10 82 -13z m1777 -226 c34 -16 62 -33 62 -38 0 -5 -6 -21 -14
-36 -13 -26 -81 -274 -126 -459 -12 -51 -24 -93 -27 -93 -2 0 -20 17 -41 38
-20 21 -49 47 -65 58 l-27 19 44 180 c25 99 54 205 64 236 11 30 23 74 27 96
5 34 10 40 23 35 9 -4 45 -21 80 -36z m-5762 -3 c4 -16 27 -104 51 -198 24
-93 51 -205 60 -247 l17 -77 -29 -23 c-17 -12 -45 -37 -63 -54 -17 -18 -34
-29 -36 -26 -2 4 -13 48 -25 97 -12 50 -33 125 -46 167 -25 79 -68 247 -78
304 -6 31 -4 33 46 49 29 9 59 21 67 26 24 13 29 11 36 -18z m222 -817 c32
-18 221 -118 422 -221 201 -103 433 -224 516 -269 l152 -81 5 -315 c4 -173 8
-328 9 -345 3 -27 -1 -31 -42 -45 -25 -8 -46 -15 -48 -16 -2 -1 2 -13 9 -25
13 -26 34 -776 24 -866 l-6 -52 -61 39 c-33 22 -68 42 -77 45 -26 8 -31 144
-31 855 l0 607 -112 58 c-62 32 -151 79 -198 105 -47 26 -173 91 -280 145
-107 54 -225 116 -262 137 l-66 39 -119 -85 c-65 -48 -149 -110 -188 -139
-246 -188 -476 -355 -513 -373 -36 -17 -41 -23 -28 -33 8 -6 35 -76 59 -154
46 -144 121 -387 137 -442 5 -16 45 -147 88 -290 44 -143 113 -368 152 -500
40 -132 92 -284 115 -337 l43 -97 -42 -22 c-22 -12 -57 -34 -76 -48 -19 -15
-40 -31 -47 -35 -22 -13 -60 85 -144 370 -45 154 -114 389 -154 524 -74 252
-163 536 -240 765 -25 72 -56 168 -70 215 -14 47 -32 96 -39 109 -13 23 -11
26 38 59 28 20 94 67 146 106 52 39 158 116 235 171 77 55 217 161 311 235
212 166 306 238 317 239 5 1 34 -14 65 -33z m5578 -159 c132 -105 285 -226
340 -267 88 -67 425 -321 432 -325 1 -1 -7 -24 -19 -51 -41 -97 -205 -604
-282 -874 -127 -446 -171 -597 -197 -685 -17 -55 -44 -148 -60 -207 -27 -98
-64 -188 -78 -188 -3 0 -28 18 -57 40 -28 22 -66 45 -83 51 -30 10 -31 11 -17
47 7 20 24 62 38 92 13 30 38 102 55 160 16 58 51 177 77 265 26 88 55 189 65
225 58 210 162 561 225 760 18 58 43 137 54 177 12 39 29 80 38 89 17 16 17
18 -1 28 -34 20 -269 198 -351 266 -44 36 -118 95 -164 130 -46 36 -113 90
-150 120 -36 31 -80 66 -98 78 l-32 23 -228 -112 c-125 -61 -284 -142 -353
-179 -69 -37 -150 -81 -180 -97 -30 -17 -85 -43 -123 -58 -54 -23 -67 -32 -66
-49 1 -12 1 -339 1 -728 l-2 -707 -56 -25 c-30 -14 -68 -34 -84 -46 -15 -11
-31 -20 -34 -20 -4 0 -5 212 -4 470 3 434 2 471 -14 476 -15 4 -17 33 -16 332
0 180 -2 341 -6 357 -6 30 -6 30 136 100 148 74 776 393 933 476 50 26 97 48
105 48 8 0 123 -86 256 -192z m-2923 -529 c18 -13 79 -48 137 -79 58 -30 148
-80 200 -110 52 -31 149 -84 215 -119 119 -62 199 -107 490 -273 83 -47 176
-98 207 -113 l58 -28 -3 -471 -2 -470 -116 -60 c-64 -32 -121 -61 -126 -62 -9
-3 -9 55 -4 680 l2 268 -78 41 c-43 23 -121 67 -173 98 -52 31 -147 85 -210
120 -63 35 -169 96 -235 135 -66 40 -160 94 -210 120 -49 26 -115 64 -145 83
-47 30 -57 33 -75 21 -11 -7 -90 -52 -175 -99 -190 -107 -449 -254 -550 -312
-115 -66 -259 -146 -318 -176 l-53 -27 5 -45 c11 -91 19 -903 9 -899 -6 2 -61
30 -124 62 l-114 58 -3 462 -4 462 34 19 c18 10 125 72 238 136 113 65 324
183 470 263 234 128 537 299 580 326 24 15 39 13 73 -11z m-2578 -142 c50 -24
131 -67 180 -96 181 -106 276 -159 295 -165 16 -5 20 -15 20 -48 0 -56 47
-592 65 -741 8 -66 12 -122 10 -125 -3 -2 -19 5 -35 17 -41 30 -54 28 -105
-19 -25 -23 -47 -40 -49 -38 -2 2 -18 108 -35 234 -18 127 -41 290 -52 364
-11 73 -19 154 -17 178 l3 45 -115 60 c-63 33 -154 82 -202 109 -49 27 -92 49
-97 49 -4 0 -49 -51 -99 -113 -49 -62 -107 -128 -127 -145 l-36 -33 29 -33
c21 -25 35 -58 52 -127 12 -52 51 -200 86 -329 35 -129 79 -313 98 -407 19
-95 40 -181 46 -192 16 -31 12 -39 -24 -56 -18 -9 -54 -36 -80 -60 -25 -25
-46 -44 -46 -42 -1 3 -115 443 -165 632 -55 209 -172 610 -185 635 -6 10 -10
23 -10 29 0 6 35 48 78 93 42 46 104 115 137 153 33 39 98 112 144 163 l84 92
31 -20 c17 -12 72 -41 121 -64z m5265 76 c0 -7 33 -47 227 -273 39 -46 96
-113 125 -148 l53 -65 -58 -200 c-32 -111 -70 -239 -83 -286 -20 -70 -183
-700 -201 -777 -7 -31 -17 -29 -66 11 -23 18 -57 41 -75 50 -36 19 -36 14 -2
136 10 36 28 110 40 165 13 55 46 195 75 310 112 446 123 481 164 512 14 10
11 17 -25 55 -23 24 -75 86 -116 138 -104 132 -96 128 -160 87 -63 -41 -253
-137 -320 -162 -44 -16 -47 -20 -41 -44 10 -36 9 -59 -11 -196 -55 -381 -91
-585 -105 -585 -4 0 -20 13 -35 29 -43 45 -71 47 -112 11 -19 -16 -38 -30 -42
-30 -5 0 -2 39 5 86 6 48 19 159 28 248 9 88 25 236 35 328 11 92 20 185 20
207 0 32 5 43 28 59 35 25 235 134 432 235 85 44 164 86 175 93 21 15 45 18
45 6z m-771 -195 c-2 -1 -14 -11 -26 -21 -20 -16 -23 -17 -23 -3 0 8 8 18 18
20 21 6 37 8 31 4z m-4449 -327 c14 -11 24 -33 29 -70 5 -30 25 -147 44 -260
20 -113 47 -278 61 -367 14 -88 31 -174 36 -189 11 -28 1 -43 -27 -44 -6 0
-36 -22 -66 -50 l-55 -50 -12 48 c-6 26 -29 133 -50 237 -49 242 -146 641
-165 679 -8 16 -15 33 -15 39 0 10 58 88 74 99 10 7 102 -39 146 -72z m5178
34 l40 -47 -18 -31 c-19 -33 -101 -383 -175 -746 -25 -123 -48 -226 -50 -228
-2 -3 -20 9 -40 27 -20 17 -53 40 -74 51 -21 10 -41 25 -43 32 -3 7 1 42 8 78
6 36 35 184 63 330 29 146 61 306 71 355 11 50 20 98 20 107 0 18 124 117 147
118 6 0 29 -21 51 -46z m-2526 -387 c84 -57 232 -158 328 -226 96 -67 195
-135 218 -152 32 -21 41 -33 34 -42 -6 -7 -15 -102 -21 -212 -18 -325 -41
-673 -61 -950 -10 -143 -22 -331 -26 -418 -3 -87 -10 -171 -15 -185 -10 -32
-4 567 10 888 5 124 14 356 21 515 6 160 15 299 20 310 9 24 -8 38 -345 274
-121 85 -236 166 -255 181 -19 15 -41 30 -47 34 -10 6 -13 -31 -13 -168 l0
-176 36 -15 c20 -8 80 -46 133 -83 53 -38 125 -89 161 -114 106 -74 100 -57
89 -253 -5 -93 -12 -524 -15 -957 l-5 -788 30 6 c17 4 31 3 31 -1 0 -13 -206
-305 -215 -305 -2 0 7 24 18 53 22 52 22 54 24 1037 l2 985 29 25 c29 25 77
89 71 94 -2 1 -55 38 -118 82 -62 43 -148 103 -190 133 -91 64 -108 72 -96 45
4 -10 12 -41 17 -69 9 -55 26 -1247 28 -2005 1 -371 4 -483 14 -513 13 -34 12
-41 -8 -79 -12 -23 -27 -43 -33 -45 -6 -2 -32 20 -58 49 l-47 53 -1 1272 -2
1272 35 37 c21 22 27 32 15 26 -69 -35 -202 -117 -269 -165 -44 -32 -90 -60
-103 -63 -46 -12 -21 -88 41 -125 l43 -27 7 -258 c3 -143 11 -533 16 -869 8
-540 15 -729 35 -910 l6 -50 -26 30 c-51 61 -218 319 -255 396 -34 71 -39 89
-45 186 -3 60 -12 158 -20 218 -8 61 -19 178 -25 260 -22 296 -29 392 -44 530
-18 163 -32 343 -50 615 -7 107 -16 202 -19 210 -5 11 31 40 131 105 75 49
198 131 272 183 164 113 331 220 347 221 6 1 81 -45 165 -102z m1936 -607 c89
-76 443 -358 700 -557 89 -69 165 -129 168 -134 5 -9 -42 -145 -98 -279 -76
-184 -246 -668 -392 -1115 -70 -215 -74 -222 -151 -335 -130 -189 -372 -548
-519 -771 -230 -348 -220 -334 -227 -302 -3 16 -19 54 -36 84 -118 215 -244
430 -432 738 -120 196 -247 406 -284 468 l-67 112 15 63 c23 103 203 1229 226
1415 l13 102 60 26 c34 14 178 91 321 169 276 153 648 355 653 355 2 1 25 -17
50 -39z m-3953 -66 c105 -53 280 -144 390 -203 110 -60 257 -138 328 -176 70
-37 127 -73 127 -79 0 -27 43 -303 79 -507 22 -123 47 -273 56 -334 9 -60 27
-164 41 -231 13 -66 33 -187 44 -268 10 -81 25 -162 31 -180 14 -38 4 -60
-131 -271 -153 -240 -359 -580 -656 -1082 l-61 -101 -154 231 c-85 128 -206
307 -269 399 -63 92 -151 223 -195 290 -43 68 -103 159 -131 203 -43 65 -59
102 -84 195 -52 195 -443 1312 -507 1448 -9 18 -14 34 -12 36 2 2 144 115 314
251 171 136 337 271 369 299 63 55 218 174 226 175 3 1 91 -42 195 -95z
m-1235 -1004 c27 -52 101 -228 144 -337 18 -49 57 -144 85 -213 28 -69 65
-170 82 -225 17 -55 47 -154 68 -220 56 -177 119 -382 135 -445 8 -30 30 -108
50 -173 50 -164 49 -169 -20 -196 -31 -11 -61 -21 -68 -21 -8 0 -22 35 -34 83
-12 45 -36 127 -52 182 -71 235 -210 732 -225 805 -4 19 -20 76 -36 125 -15
50 -42 151 -59 225 -77 336 -100 436 -100 443 0 16 11 5 30 -33z m6181 -89
c-17 -66 -36 -133 -42 -148 -6 -15 -35 -122 -65 -238 -30 -115 -71 -264 -90
-330 -20 -66 -46 -158 -59 -205 -21 -80 -158 -557 -192 -665 -28 -93 -54 -145
-73 -145 -23 0 -106 35 -114 48 -8 14 60 235 139 452 36 96 81 222 100 280
137 399 195 556 256 697 27 61 64 154 83 206 38 104 75 182 83 174 2 -3 -9
-60 -26 -126z m-2172 -1633 l45 -51 -50 -44 c-126 -113 -622 -469 -846 -607
l-77 -48 -33 25 c-18 13 -80 53 -138 88 -58 35 -196 129 -307 209 -112 80
-253 178 -315 218 -62 40 -126 84 -143 97 l-29 24 32 32 c17 17 32 37 32 43 0
7 6 20 13 31 13 17 16 17 72 -10 94 -44 257 -144 435 -266 91 -62 203 -139
250 -171 47 -32 95 -65 107 -74 25 -18 27 -17 263 151 58 41 146 100 195 131
50 31 127 83 173 116 69 50 254 157 272 158 3 0 25 -23 49 -52z m-3335 -321
l-18 -215 -56 112 c-31 61 -76 144 -99 184 -24 40 -42 74 -40 76 16 13 216 73
222 67 5 -5 0 -105 -9 -224z m4917 201 c111 -35 109 -32 47 -142 -29 -52 -75
-137 -103 -188 l-50 -93 -6 90 c-8 107 -27 286 -35 334 l-5 34 43 -7 c24 -4
73 -16 109 -28z m-3564 -160 c-12 -6 -17 -23 -17 -57 0 -72 29 -140 42 -100 3
9 9 9 25 0 50 -26 72 -11 74 52 3 64 16 -54 24 -204 5 -98 4 -148 -3 -153 -6
-3 -38 -9 -71 -12 -47 -5 -62 -4 -65 7 -7 18 -36 390 -36 452 0 46 1 47 22 36
19 -10 19 -12 5 -21z m1957 -179 c3 1 36 1 73 1 l66 0 -7 -120 c-4 -66 -9
-133 -12 -148 l-6 -28 -64 8 c-36 4 -69 10 -74 13 -6 4 -10 57 -10 119 0 120
8 186 20 166 4 -6 10 -11 14 -11z m120 -317 c4 -7 -57 -238 -103 -387 l-9 -30
-1 30 c-2 44 -34 165 -75 283 -20 57 -36 105 -36 108 0 8 219 4 224 -4z
m-1854 -10 c0 -5 -15 -69 -34 -143 -18 -74 -39 -164 -46 -202 l-14 -67 -19 72
c-10 40 -38 132 -61 205 -24 73 -41 134 -38 138 9 8 212 6 212 -3z"/>
<path d="M6970 4341 c-91 -48 -244 -132 -340 -188 -96 -55 -207 -116 -246
-136 l-70 -35 -33 -199 c-18 -109 -41 -250 -51 -313 -10 -63 -34 -200 -53
-305 -20 -104 -45 -251 -57 -325 -11 -74 -28 -170 -36 -213 l-15 -78 33 -47
c19 -26 85 -132 147 -237 62 -104 155 -257 206 -340 51 -82 132 -220 180 -305
48 -85 89 -156 90 -158 1 -1 43 63 94 142 91 143 228 339 426 611 81 111 105
151 115 195 17 76 190 594 317 950 58 162 115 328 129 368 13 40 30 82 38 94
16 22 30 10 -334 298 -45 36 -114 92 -154 125 -39 34 -105 88 -146 121 l-75
61 -165 -86z m437 -735 l100 -119 -22 -51 c-46 -104 -195 -578 -284 -904 l-50
-183 -113 -119 c-61 -66 -113 -118 -115 -117 -9 10 80 369 173 702 126 448
165 569 190 596 l24 25 -36 35 c-20 18 -68 73 -106 122 -39 48 -74 87 -79 87
-5 0 -49 -24 -98 -53 -48 -29 -128 -70 -177 -91 -49 -21 -93 -42 -99 -47 -5
-5 -8 -25 -7 -43 2 -18 -10 -100 -27 -182 -53 -264 -110 -535 -145 -689 -19
-82 -40 -177 -46 -209 l-12 -60 -18 24 c-10 13 -43 72 -75 132 l-57 110 16 51
c9 29 29 131 46 227 29 174 138 732 142 735 2 0 73 42 158 93 85 50 218 125
295 166 l140 76 91 -98 c50 -53 136 -151 191 -216z m-323 -122 c13 -15 23 -32
21 -38 -2 -6 -13 -40 -24 -76 -48 -154 -205 -782 -286 -1150 -31 -140 -60
-258 -64 -263 -4 -4 -35 28 -70 70 -44 55 -61 84 -57 98 2 11 16 72 29 135 14
63 32 142 41 175 8 33 53 231 100 440 108 482 124 549 133 552 5 2 37 21 73
42 36 22 68 40 72 40 4 1 18 -11 32 -25z"/>
<path d="M2949 4309 c-85 -67 -201 -161 -259 -209 -108 -89 -254 -199 -301
-227 -25 -15 -26 -18 -14 -37 13 -20 35 -80 190 -521 125 -353 294 -866 301
-913 5 -33 18 -61 44 -92 20 -25 104 -144 187 -265 82 -121 193 -283 248 -360
54 -77 109 -157 121 -178 l22 -39 29 54 c38 66 149 250 263 433 48 77 147 239
220 360 73 121 138 227 145 235 10 12 9 33 -6 110 -14 71 -153 901 -214 1286
-5 28 -17 37 -123 94 -64 34 -171 93 -237 130 -66 38 -174 96 -240 131 -66 34
-138 74 -160 89 -22 15 -45 30 -51 33 -7 4 -81 -48 -165 -114z m255 -445 c53
-25 183 -95 289 -155 105 -60 195 -110 199 -111 5 -2 22 -82 38 -178 33 -189
129 -683 156 -792 l16 -68 -68 -119 c-68 -119 -69 -119 -81 -91 -19 47 -61
208 -78 305 -9 50 -45 234 -81 410 -35 176 -64 339 -64 362 l0 42 -92 54 c-51
30 -137 77 -191 106 l-98 53 -113 -118 -112 -118 23 -35 c13 -18 23 -39 23
-45 0 -6 20 -76 45 -156 25 -80 59 -192 75 -250 83 -301 105 -382 155 -577 30
-116 55 -222 55 -236 0 -22 -9 -15 -72 52 -163 171 -141 134 -212 377 -35 120
-93 311 -129 424 -36 113 -79 250 -96 305 -17 56 -41 122 -54 148 -14 26 -21
47 -17 47 4 0 64 64 135 143 71 78 156 169 189 203 34 33 62 61 62 62 1 1 45
-19 98 -44z m53 -395 c81 -44 81 -44 93 -107 19 -95 69 -313 137 -602 36 -151
78 -332 94 -403 15 -70 37 -148 48 -172 l20 -45 -77 -97 c-55 -69 -78 -91 -80
-77 -24 182 -325 1391 -357 1441 -14 21 -13 26 7 58 13 19 31 35 40 35 9 0 43
-14 75 -31z"/>
</g>
</svg>
